<svg width="1240" height="820" viewBox="0 0 1240 820" xmlns="http://www.w3.org/2000/svg" role="img" aria-label="Contexto completo de hello_world_app">
  <defs>
    <marker id="arrow" markerWidth="12" markerHeight="12" refX="10" refY="6" orient="auto">
      <path d="M0,0 L12,6 L0,12 Z" fill="#475569"/>
    </marker>
    <filter id="shadow" x="-20%" y="-20%" width="140%" height="140%">
      <feDropShadow dx="0" dy="10" stdDeviation="12" flood-opacity="0.12"/>
    </filter>
  </defs>

  <style>
    .title { font: 700 26px 'Segoe UI', Arial, sans-serif; fill: #0f172a; }
    .subtitle { font: 600 15px 'Segoe UI', Arial, sans-serif; fill: #475569; }
    .label { font: 700 15px 'Segoe UI', Arial, sans-serif; fill: #111827; }
    .small { font: 600 12px 'Segoe UI', Arial, sans-serif; fill: #475569; }
    .rootbox { fill: #f8fafc; stroke: #cbd5e1; stroke-width: 2; }
    .lib { fill: #dbeafe; stroke: #2563eb; stroke-width: 2; }
    .ui { fill: #ede9fe; stroke: #8b5cf6; stroke-width: 2; }
    .screen { fill: #fef3c7; stroke: #facc15; stroke-width: 2; }
    .data { fill: #dcfce7; stroke: #22c55e; stroke-width: 2; }
    .warn { fill: #fee2e2; stroke: #ef4444; stroke-width: 2; }
    .platform { fill: #ffedd5; stroke: #fb923c; stroke-width: 2; }
    .path { stroke: #475569; stroke-width: 3; fill: none; marker-end: url(#arrow); }
  </style>

  <rect width="1240" height="820" fill="#f8fafc"/>
  <text x="620" y="40" text-anchor="middle" class="title">Contexto completo de hello_world_app</text>
  <text x="620" y="66" text-anchor="middle" class="subtitle">Estructura del proyecto, entorno, UI y flujo funcional</text>

  <g filter="url(#shadow)">
    <rect x="530" y="90" width="200" height="86" rx="18" class="rootbox"/>
    <text x="630" y="128" text-anchor="middle" class="label">hello_world_app</text>
    <text x="630" y="150" text-anchor="middle" class="small">Proyecto Flutter</text>
  </g>

  <g filter="url(#shadow)">
    <rect x="100" y="220" width="220" height="104" rx="18" class="lib"/>
    <text x="210" y="260" text-anchor="middle" class="label">lib/</text>
    <text x="210" y="282" text-anchor="middle" class="small">Código fuente</text>
  </g>

  <g filter="url(#shadow)">
    <rect x="410" y="220" width="220" height="104" rx="18" class="ui"/>
    <text x="520" y="260" text-anchor="middle" class="label">presentation/</text>
    <text x="520" y="282" text-anchor="middle" class="small">Capa visual</text>
  </g>

  <g filter="url(#shadow)">
    <rect x="720" y="220" width="220" height="104" rx="18" class="screen"/>
    <text x="830" y="260" text-anchor="middle" class="label">screens/</text>
    <text x="830" y="282" text-anchor="middle" class="small">Pantallas</text>
  </g>

  <g filter="url(#shadow)">
    <rect x="1030" y="220" width="120" height="104" rx="18" class="data"/>
    <text x="1090" y="260" text-anchor="middle" class="label">test/</text>
    <text x="1090" y="282" text-anchor="middle" class="small">Pruebas</text>
  </g>

  <path class="path" d="M530 134 H320"/>
  <path class="path" d="M630 176 V220"/>
  <path class="path" d="M730 134 H920"/>
  <path class="path" d="M730 134 H1090"/>

  <g filter="url(#shadow)">
    <rect x="410" y="380" width="480" height="110" rx="20" class="screen"/>
    <text x="650" y="420" text-anchor="middle" class="label">counter/</text>
    <text x="650" y="444" text-anchor="middle" class="small">counter_screen.dart + counter_functions_screen.dart</text>
  </g>

  <g filter="url(#shadow)">
    <rect x="100" y="560" width="170" height="120" rx="18" class="platform"/>
    <text x="185" y="610" text-anchor="middle" class="label">android/</text>
    <text x="185" y="634" text-anchor="middle" class="small">Android</text>
  </g>

  <g filter="url(#shadow)">
    <rect x="300" y="560" width="170" height="120" rx="18" class="platform"/>
    <text x="385" y="610" text-anchor="middle" class="label">ios/</text>
    <text x="385" y="634" text-anchor="middle" class="small">iOS</text>
  </g>

  <g filter="url(#shadow)">
    <rect x="500" y="560" width="170" height="120" rx="18" class="platform"/>
    <text x="585" y="610" text-anchor="middle" class="label">web/</text>
    <text x="585" y="634" text-anchor="middle" class="small">Web</text>
  </g>

  <g filter="url(#shadow)">
    <rect x="700" y="560" width="170" height="120" rx="18" class="platform"/>
    <text x="785" y="610" text-anchor="middle" class="label">linux/</text>
    <text x="785" y="634" text-anchor="middle" class="small">Linux</text>
  </g>

  <g filter="url(#shadow)">
    <rect x="900" y="560" width="170" height="120" rx="18" class="platform"/>
    <text x="985" y="610" text-anchor="middle" class="label">windows/</text>
    <text x="985" y="634" text-anchor="middle" class="small">Windows</text>
  </g>

  <g filter="url(#shadow)">
    <rect x="1100" y="560" width="90" height="120" rx="18" class="platform"/>
    <text x="1145" y="610" text-anchor="middle" class="label">macos/</text>
    <text x="1145" y="634" text-anchor="middle" class="small">macOS</text>
  </g>

  <g filter="url(#shadow)">
    <rect x="320" y="720" width="220" height="70" rx="18" class="warn"/>
    <text x="430" y="760" text-anchor="middle" class="label">build/</text>
  </g>

  <g filter="url(#shadow)">
    <rect x="600" y="720" width="220" height="70" rx="18" class="warn"/>
    <text x="710" y="760" text-anchor="middle" class="label">.dart_tool/</text>
  </g>

  <path class="path" d="M210 324 V390"/>
  <path class="path" d="M520 324 V380"/>
  <path class="path" d="M830 324 V380"/>
  <path class="path" d="M1090 324 V380"/>

  <path class="path" d="M650 490 V560"/>
  <path class="path" d="M185 680 V720"/>
  <path class="path" d="M710 680 V720"/>

  <g>
    <rect x="70" y="430" width="260" height="95" rx="18" class="lib"/>
    <text x="200" y="470" text-anchor="middle" class="label">main.dart</text>
    <text x="200" y="494" text-anchor="middle" class="small">Entrada: runApp(MyApp())</text>
  </g>

  <g>
    <rect x="910" y="430" width="260" height="95" rx="18" class="screen"/>
    <text x="1040" y="470" text-anchor="middle" class="label">counter_functions_screen.dart</text>
    <text x="1040" y="494" text-anchor="middle" class="small">UI + lógica del contador</text>
  </g>

  <path class="path" d="M330 478 H910"/>
  <path class="path" d="M1040 525 V560"/>

  <g>
    <rect x="950" y="642" width="220" height="70" rx="18" class="data"/>
    <text x="1060" y="682" text-anchor="middle" class="label">README.md</text>
  </g>
</svg>
